<svg width="32" height="32" viewBox="0 0 32 32" fill="none" xmlns="http://www.w3.org/2000/svg">
  <defs>
    <linearGradient id="barGradient" x1="0%" y1="0%" x2="0%" y2="100%">
      <stop offset="0%" style="stop-color:#D1D5DB;stop-opacity:1" />
      <stop offset="100%" style="stop-color:#6B7280;stop-opacity:1" />
    </linearGradient>
  </defs>
  
  <!-- Top curve of S: starts low on left, rises to peak in middle-right, then descends -->
  <rect x="2" y="24" width="1.5" height="2" rx="0.75" fill="url(#barGradient)"/>
  <rect x="3.5" y="22" width="1.5" height="4" rx="0.75" fill="url(#barGradient)"/>
  <rect x="5" y="20" width="1.5" height="6" rx="0.75" fill="url(#barGradient)"/>
  <rect x="6.5" y="18" width="1.5" height="8" rx="0.75" fill="url(#barGradient)"/>
  <rect x="8" y="16" width="1.5" height="10" rx="0.75" fill="url(#barGradient)"/>
  <rect x="9.5" y="14" width="1.5" height="12" rx="0.75" fill="url(#barGradient)"/>
  <rect x="11" y="12" width="1.5" height="14" rx="0.75" fill="url(#barGradient)"/>
  <rect x="12.5" y="10" width="1.5" height="16" rx="0.75" fill="url(#barGradient)"/>
  <rect x="14" y="8" width="1.5" height="18" rx="0.75" fill="url(#barGradient)"/>
  <rect x="15.5" y="6" width="1.5" height="20" rx="0.75" fill="url(#barGradient)"/>
  <rect x="17" y="8" width="1.5" height="18" rx="0.75" fill="url(#barGradient)"/>
  <rect x="18.5" y="10" width="1.5" height="16" rx="0.75" fill="url(#barGradient)"/>
  <rect x="20" y="12" width="1.5" height="14" rx="0.75" fill="url(#barGradient)"/>
  <rect x="21.5" y="14" width="1.5" height="12" rx="0.75" fill="url(#barGradient)"/>
  <rect x="23" y="16" width="1.5" height="10" rx="0.75" fill="url(#barGradient)"/>
  <rect x="24.5" y="18" width="1.5" height="8" rx="0.75" fill="url(#barGradient)"/>
  <rect x="26" y="20" width="1.5" height="6" rx="0.75" fill="url(#barGradient)"/>
  <rect x="27.5" y="22" width="1.5" height="4" rx="0.75" fill="url(#barGradient)"/>
  <rect x="29" y="24" width="1.5" height="2" rx="0.75" fill="url(#barGradient)"/>
  
  <!-- Bottom curve of S: starts high on right, descends to low in middle-left, then rises -->
  <rect x="29" y="6" width="1.5" height="2" rx="0.75" fill="url(#barGradient)"/>
  <rect x="27.5" y="8" width="1.5" height="4" rx="0.75" fill="url(#barGradient)"/>
  <rect x="26" y="10" width="1.5" height="6" rx="0.75" fill="url(#barGradient)"/>
  <rect x="24.5" y="12" width="1.5" height="8" rx="0.75" fill="url(#barGradient)"/>
  <rect x="23" y="14" width="1.5" height="10" rx="0.75" fill="url(#barGradient)"/>
  <rect x="21.5" y="16" width="1.5" height="12" rx="0.75" fill="url(#barGradient)"/>
  <rect x="20" y="18" width="1.5" height="14" rx="0.75" fill="url(#barGradient)"/>
  <rect x="18.5" y="20" width="1.5" height="16" rx="0.75" fill="url(#barGradient)"/>
  <rect x="17" y="22" width="1.5" height="18" rx="0.75" fill="url(#barGradient)"/>
  <rect x="15.5" y="24" width="1.5" height="20" rx="0.75" fill="url(#barGradient)"/>
  <rect x="14" y="22" width="1.5" height="18" rx="0.75" fill="url(#barGradient)"/>
  <rect x="12.5" y="20" width="1.5" height="16" rx="0.75" fill="url(#barGradient)"/>
  <rect x="11" y="18" width="1.5" height="14" rx="0.75" fill="url(#barGradient)"/>
  <rect x="9.5" y="16" width="1.5" height="12" rx="0.75" fill="url(#barGradient)"/>
  <rect x="8" y="14" width="1.5" height="10" rx="0.75" fill="url(#barGradient)"/>
  <rect x="6.5" y="12" width="1.5" height="8" rx="0.75" fill="url(#barGradient)"/>
  <rect x="5" y="10" width="1.5" height="6" rx="0.75" fill="url(#barGradient)"/>
  <rect x="3.5" y="8" width="1.5" height="4" rx="0.75" fill="url(#barGradient)"/>
  <rect x="2" y="6" width="1.5" height="2" rx="0.75" fill="url(#barGradient)"/>
</svg>
